<svg xmlns="http://www.w3.org/2000/svg" viewBox="0 0 14 18" id="svg11894320024"><path d="M 7 4 C 6.382 4 5.778 4.183 5.264 4.527 C 4.75 4.87 4.349 5.358 4.113 5.929 C 3.876 6.5 3.814 7.128 3.935 7.735 C 4.056 8.341 4.353 8.898 4.79 9.335 C 5.227 9.772 5.784 10.069 6.39 10.19 C 6.997 10.31 7.625 10.249 8.196 10.012 C 8.767 9.776 9.255 9.375 9.598 8.861 C 9.942 8.347 10.125 7.743 10.125 7.125 C 10.125 6.296 9.796 5.501 9.21 4.915 C 8.624 4.329 7.829 4 7 4 Z M 7 9 C 6.629 9 6.267 8.89 5.958 8.684 C 5.65 8.478 5.41 8.185 5.268 7.843 C 5.126 7.5 5.089 7.123 5.161 6.759 C 5.233 6.395 5.412 6.061 5.674 5.799 C 5.936 5.537 6.27 5.358 6.634 5.286 C 6.998 5.214 7.375 5.251 7.718 5.393 C 8.06 5.535 8.353 5.775 8.559 6.083 C 8.765 6.392 8.875 6.754 8.875 7.125 C 8.875 7.622 8.677 8.099 8.326 8.451 C 7.974 8.802 7.497 9 7 9 Z M 7 0.25 C 5.177 0.252 3.43 0.977 2.141 2.266 C 0.852 3.555 0.127 5.302 0.125 7.125 C 0.125 9.578 1.259 12.178 3.406 14.645 C 4.371 15.759 5.457 16.763 6.645 17.637 C 6.75 17.71 6.875 17.75 7.003 17.75 C 7.131 17.75 7.257 17.71 7.362 17.637 C 8.547 16.762 9.631 15.759 10.594 14.645 C 12.738 12.178 13.875 9.578 13.875 7.125 C 13.873 5.302 13.148 3.555 11.859 2.266 C 10.57 0.977 8.823 0.252 7 0.25 Z M 7 16.344 C 5.709 15.328 1.375 11.598 1.375 7.125 C 1.375 5.633 1.968 4.202 3.023 3.148 C 4.077 2.093 5.508 1.5 7 1.5 C 8.492 1.5 9.923 2.093 10.977 3.148 C 12.032 4.202 12.625 5.633 12.625 7.125 C 12.625 11.596 8.291 15.328 7 16.344 Z" fill="var(--token-32d8ca55-1e9b-45fa-b6c2-0dd5fd45dd61, rgb(255, 255, 255)) /* {&quot;name&quot;:&quot;Neutral 100&quot;} */"/></svg>